<mxfile host="app.diagrams.net" modified="2024-06-21T22:56:51.172Z" agent="Mozilla/5.0 (Windows NT 10.0; Win64; x64) AppleWebKit/537.36 (KHTML, like Gecko) Chrome/124.0.0.0 Safari/537.36 OPR/110.0.0.0" version="24.3.1" etag="6OlIfVc3Tx-lG2Qt1ftT" type="github">
  <diagram name="Page-1" id="LsUV4oqARLwmDA6JXkYk">
    <mxGraphModel>
      <root>
        <mxCell id="0" />
        <mxCell id="1" parent="0" />
      </root>
    </mxGraphModel>
  </diagram>
</mxfile>
